<?xml version="1.0" encoding="utf-8"?>
<!-- Generator: Adobe Illustrator 24.2.3, SVG Export Plug-In . SVG Version: 6.00 Build 0)  -->
<svg version="1.1" id="Capa_1" xmlns="http://www.w3.org/2000/svg" xmlns:xlink="http://www.w3.org/1999/xlink" x="0px" y="0px"
	 viewBox="0 0 595.28 144.57" style="enable-background:new 0 0 595.28 144.57;" xml:space="preserve">
<style type="text/css">
	.st0{fill:#FFFFFF;}
</style>
<path class="st0" d="M66.68,2.11c2.75-1.83,6.35-1.83,9.16,0c7.02,4.4,13.79,9.3,20.2,14.56c0,0,1.77,1.22,1.83-0.86
	c-0.18-2.63,0-5.32,0.43-7.95c0.28-0.67,0.74-1.24,1.34-1.64s1.3-0.62,2.02-0.62c0,0,7.93,0.37,13,1.04
	c1.1,0.13,2.12,0.63,2.89,1.42c0.78,0.79,1.26,1.82,1.38,2.92c0,0,3.23,21.59,3.97,29.36c0,0,0.61,3.98,6.35,10.7
	c0,0,11.72,16.33,13.06,19.45c0,0,2.69,5.63-3.11,6.36c0,0-10.68,1.1-11.72,1.35c-0.69,0.08-1.31,0.42-1.75,0.96
	c-0.43,0.54-0.64,1.23-0.57,1.91c0,0-0.61,37.55-3.3,55.53c0,0-0.73,7.16-4.7,7.03c0,0-10.99-0.37-13.49-0.31c0,0-1.1,0-0.98-1.47
	c0,0,5.62-58.53,1.83-88.07c0,0-0.18-3.85-3.05-4.71c0,0-2.69-1.04-5.25,2.32c-11.05,15.42-17.1,33.86-17.33,52.84
	c0,0-0.3,9.3,1.1,11.62c0,0,0.92,1.65,5.49,2.02l5.68,0.8c0,0,1.1,0,0.98,1.41c0,0-1.28,17.13-1.71,20.18
	c0,0.73-0.12,1.41-0.37,2.08c0,0-0.24,0.55-2.01,0.49c0,0-25.33-0.18-28.2,0c0,0-1.22,0-1.46-0.61c-0.24-0.61-1.77-22.2-1.71-25.26
	c0-0.61,0.31-1.22,0.92-1.47c1.93-1.21,3.56-2.84,4.78-4.76c1.22-1.93,1.98-4.1,2.24-6.37c0.31-3.3,0.31-6.54,0.12-9.79
	c0,0,0.92-33.03,1.22-38.29c0,0,0.12-1.77-2.2-2.08c-0.56-0.14-1.15-0.05-1.65,0.24c-0.49,0.3-0.84,0.79-0.98,1.35v0.18
	c0,0.18-1.65,21.71-1.34,30.27c0,0,0.61,5.63-3.36,5.75c0,0-3.78,0.61-3.97-4.1c0,0,0.31-21.16,1.22-31.56
	c0-1.22-0.85-2.2-2.08-2.32c-0.59-0.09-1.19,0.05-1.68,0.39c-0.49,0.34-0.83,0.86-0.95,1.44v0.24c0,0-1.65,20.18-1.34,30.83
	c0,0,0.49,5.2-3.66,5.02c0,0-3.42,0.37-3.66-4.22c0,0,0.98-28.87,1.22-31.13c-0.03-0.55-0.25-1.08-0.63-1.49
	c-0.38-0.4-0.89-0.66-1.44-0.72h-0.24c-0.59-0.05-1.17,0.12-1.64,0.48c-0.46,0.36-0.77,0.89-0.86,1.47v0.18
	c0,0-1.53,34.62-1.34,44.77c0,0-0.12,10.4,7.63,14.68c0,0,1.1,0.61,1.16,1.65c0,0,0.85,18.35,1.65,24.22c0,0,0.31,1.47-0.98,1.47
	l-19.47,0.49c-1.01,0-1.99-0.38-2.72-1.08c-0.74-0.69-1.18-1.64-1.24-2.65c-2.54-19.42-3.77-39-3.66-58.59
	c0.08-0.72-0.1-1.45-0.52-2.05s-1.03-1.02-1.74-1.19c0,0-10.01-0.92-12.39-1.47c-0.62-0.17-1.19-0.47-1.66-0.9
	c-0.48-0.42-0.85-0.95-1.1-1.54c-0.24-0.59-0.34-1.23-0.3-1.87c0.04-0.64,0.24-1.26,0.56-1.81c16.21-27.83,38.89-51.33,66.1-68.5
	V2.11z M203.77,56.42h-19.23c-6.23,0-6.23,0-7.51,7.28c-1.34,7.22-1.28,7.46,4.39,7.46h11.41l-6.47,37.06
	c-1.59,8.26-5.19,13.94-16.36,17.31c-2.87,0.79-3.66,1.83-3.66,3.06c0.24,2.14,0.85,4.16,1.83,5.99c1.83,4.4,2.87,5.2,4.39,5.2
	c1.83-0.18,3.66-0.55,5.49-1.04c15.87-5.2,22.34-17.37,24.9-31.8l7.32-41.71C211.52,56.42,211.52,56.42,203.77,56.42z M268.89,56.42
	c-7.75,0-7.75,0-8.79,6.48l-5.62,33.64c-1.59,9.85-4.15,15.53-13.79,15.53c-9.58,0-12.7-5.69-11.17-14.5l5.49-32.11
	c1.53-9.05,1.22-9.05-6.71-9.05c-8.12,0-8.12,0-9.16,6.24l-5.68,33.64c-3.42,19.14,8.55,31.01,25.45,31.01
	c18.92,0,28.5-8.5,31.62-28.68l5.74-33.39c1.22-8.81,0.79-8.81-7.32-8.81H268.89z M304.48,111.59c6.23-0.31,9.58-3.12,9.58-5.93
	c0-3.67-4.39-4.89-10.38-6.73c-11.66-3.67-22.34-7.77-22.34-20.18c0-14.8,12.21-22.81,27.53-22.81c6.1,0,12.33,0.24,18.43,0.8
	c4.15,0.49,5.19,1.83,3.91,8.26c-1.34,6.48-2.87,6.97-6.47,6.73c-4.46-0.24-10.19-0.8-16.91-0.8c-7.75,0-10.13,2.87-10.13,5.5
	c0,3.3,3.11,5.14,10.38,7.22c13.49,3.85,22.34,9.3,22.34,20.98c0,13.7-10.13,21.71-26.49,22.2c-7.81,0.31-15.62-0.12-23.38-1.22
	c-5.19-0.79-5.49-0.79-4.15-8.32c1.28-6.73,1.28-7.22,6.23-6.73c7.2,0.92,14.53,1.22,21.79,1.04H304.48z M389.32,56.42h-43.82
	c-6.23,0-6.23,0-7.57,7.52c-1.28,7.52-0.98,7.52,4.46,7.52h14.28l-8.06,46.42c-1.59,9.05-1.28,9.05,6.71,9.05
	c7.57,0,7.81,0,8.85-6.48l8.3-48.93h13.79c6.16,0,6.16,0,7.5-7.46c1.28-7.52,1.22-7.52-4.45-7.52V56.42z M466.71,71.28
	c6.23,0,6.23,0,7.51-7.52c1.34-7.46,1.28-7.46-4.39-7.46h-31.43c-11.17,0-10.87,0-12.7,11.13l-8.05,46.79
	c-2.08,12.23-1.83,12.23,9.34,12.23h30.64c6.53,0,6.23,0,7.57-7.34c1.22-7.22,1.22-7.46-4.46-7.46H434.3l2.08-13.46h22.09
	c5.92,0,5.92,0,6.96-6.97c1.04-7.03,1.04-7.28-7.02-7.28h-19.47l2.14-12.66H466.71z M499.85,96.05l10.13-22.26
	c0.79-1.83,0.79-1.83,2.07-1.83c1.28,0,1.28,0,1.59,2.08l3.05,22.02H499.85z M527.32,64.98c-1.47-8.81-1.47-8.81-13.98-8.81
	c-11.66,0-11.42,0-15.08,7.28l-26.25,54.62c-3.84,7.71-3.05,8.5,6.53,8.5c7.57,0,7.57,0,10.68-6.97l4.09-9.36h25.45l1.28,9.36
	c1.1,6.97,1.34,6.97,8.85,6.97c8.55,0,9.34-0.49,7.81-9.05l-9.34-52.54H527.32z M589.45,56.42h-44.07c-6.23,0-6.23,0-7.51,7.52
	s-1.04,7.52,4.4,7.52h14.28l-8.06,46.42c-1.53,9.05-1.28,9.05,6.72,9.05c7.57,0,7.81,0,8.85-6.48l8.36-48.93h13.74
	c6.22,0,6.22,0,7.5-7.46c1.28-7.52,1.59-7.52-4.15-7.52"/>
</svg>
