<?xml version="1.0" encoding="utf-8"?>
<!-- Generator: Adobe Illustrator 24.2.3, SVG Export Plug-In . SVG Version: 6.00 Build 0)  -->
<svg version="1.1" id="Capa_1" xmlns="http://www.w3.org/2000/svg" xmlns:xlink="http://www.w3.org/1999/xlink" x="0px" y="0px"
	 viewBox="0 0 22.4 22.4" style="enable-background:new 0 0 22.4 22.4;" xml:space="preserve">
<style type="text/css">
	.st0{fill:#242E30;}
</style>
<g>
	<path class="st0" d="M11.2,22.3c-0.1,0-0.3,0-0.4-0.1c-0.1-0.1-2.2-1.5-4.3-3.7C3.5,15.3,2,12.2,2,9.3c0-2.5,1-4.8,2.7-6.5
		c1.7-1.7,4-2.7,6.5-2.7c2.5,0,4.8,1,6.5,2.7c1.7,1.7,2.7,4,2.7,6.5c0,2.9-1.5,6-4.4,9.1c-2.1,2.3-4.3,3.7-4.3,3.7
		C11.5,22.2,11.3,22.3,11.2,22.3z M11.2,1.6c-2.1,0-4,0.8-5.5,2.3C4.3,5.3,3.5,7.3,3.5,9.3c0,5.3,6.1,10.1,7.7,11.3
		c0.7-0.5,2.2-1.7,3.7-3.3c1.8-1.9,4-4.9,4-8c0-2.1-0.8-4-2.3-5.5C15.2,2.4,13.3,1.6,11.2,1.6z"/>
</g>
<g>
	<path class="st0" d="M11.2,12.9c-2,0-3.5-1.6-3.5-3.5s1.6-3.5,3.5-3.5c2,0,3.5,1.6,3.5,3.5S13.2,12.9,11.2,12.9z M11.2,7.2
		c-1.2,0-2.1,0.9-2.1,2.1c0,1.2,0.9,2.1,2.1,2.1c1.2,0,2.1-0.9,2.1-2.1C13.3,8.2,12.3,7.2,11.2,7.2z"/>
</g>
</svg>
