<?xml version="1.0" encoding="utf-8"?>
<!-- Generator: Adobe Illustrator 24.2.3, SVG Export Plug-In . SVG Version: 6.00 Build 0)  -->
<svg version="1.1" id="Capa_1" xmlns="http://www.w3.org/2000/svg" xmlns:xlink="http://www.w3.org/1999/xlink" x="0px" y="0px"
	 viewBox="0 0 45.3 45.3" style="enable-background:new 0 0 45.3 45.3;" xml:space="preserve">
<style type="text/css">
	.st0{fill:#FF8000;}
</style>
<g>
	<path class="st0" d="M22.7,3.5l6.5,13.2l14.6,2.1L33.3,29.2l2.5,14.6l-13.1-6.9L9.6,43.8l2.5-14.6L1.5,18.9l14.6-2.1L22.7,3.5z"/>
	<path class="st0" d="M9.6,45.1c-0.3,0-0.5-0.1-0.8-0.2c-0.4-0.3-0.6-0.8-0.5-1.3l2.4-13.9L0.6,19.8c-0.4-0.3-0.5-0.9-0.3-1.3
		c0.2-0.5,0.6-0.8,1-0.9l13.9-2l6.3-12.7c0.2-0.4,0.7-0.7,1.2-0.7c0,0,0,0,0,0c0.5,0,0.9,0.3,1.2,0.7l6.2,12.6l13.9,2
		c0.5,0.1,0.9,0.4,1,0.9c0.2,0.5,0,1-0.3,1.3l-10,9.9l2.4,13.9c0.1,0.5-0.1,1-0.5,1.3c-0.4,0.3-0.9,0.3-1.4,0.1l-12.5-6.6l-12.5,6.6
		C10,45,9.8,45.1,9.6,45.1z M4.3,19.8l8.7,8.5c0.3,0.3,0.4,0.7,0.4,1.1l-2.1,12l10.8-5.7c0.4-0.2,0.8-0.2,1.2,0l10.8,5.7l-2.1-12
		c-0.1-0.4,0.1-0.8,0.4-1.1l8.7-8.6L29,18c-0.4-0.1-0.8-0.3-1-0.7L22.7,6.4l-5.4,11c-0.2,0.4-0.6,0.6-1,0.7L4.3,19.8z"/>
</g>
</svg>
