<?xml version="1.0" encoding="utf-8"?>
<!-- Generator: Adobe Illustrator 24.2.3, SVG Export Plug-In . SVG Version: 6.00 Build 0)  -->
<svg version="1.1" id="Capa_1" xmlns="http://www.w3.org/2000/svg" xmlns:xlink="http://www.w3.org/1999/xlink" x="0px" y="0px"
	 viewBox="0 0 24 24" style="enable-background:new 0 0 24 24;" xml:space="preserve">
<style type="text/css">
	.st0{fill:#FF8000;}
</style>
<g>
	<path class="st0" d="M12,23.6c-0.6,0-1.1-0.1-1.6-0.4L3,19c-0.5-0.3-0.9-0.7-1.2-1.2c-0.3-0.5-0.4-1-0.4-1.6V7.8
		c0-0.6,0.1-1.1,0.4-1.6C2.1,5.7,2.5,5.3,3,5l7.4-4.2c1-0.6,2.2-0.6,3.2,0L21,5c0.5,0.3,0.9,0.7,1.2,1.2c0.3,0.5,0.4,1,0.4,1.6v8.5
		c0,0.6-0.1,1.1-0.4,1.6c-0.3,0.5-0.7,0.9-1.2,1.2l-7.4,4.2C13.1,23.5,12.6,23.6,12,23.6z M12,2.5c-0.2,0-0.4,0-0.5,0.1L4.1,6.9
		C3.9,6.9,3.8,7.1,3.7,7.2C3.6,7.4,3.5,7.6,3.5,7.8v8.5c0,0.2,0,0.4,0.1,0.5c0.1,0.2,0.2,0.3,0.4,0.4l7.4,4.2c0.3,0.2,0.7,0.2,1.1,0
		l7.4-4.2c0.2-0.1,0.3-0.2,0.4-0.4c0.1-0.2,0.1-0.3,0.1-0.5V7.8c0-0.2,0-0.4-0.1-0.5c-0.1-0.2-0.2-0.3-0.4-0.4l-7.4-4.2
		C12.4,2.5,12.2,2.5,12,2.5z"/>
</g>
</svg>
