<?xml version="1.0" encoding="utf-8"?>
<!-- Generator: Adobe Illustrator 24.2.3, SVG Export Plug-In . SVG Version: 6.00 Build 0)  -->
<svg version="1.1" id="Capa_1" xmlns="http://www.w3.org/2000/svg" xmlns:xlink="http://www.w3.org/1999/xlink" x="0px" y="0px"
	 viewBox="0 0 22.4 22.4" style="enable-background:new 0 0 22.4 22.4;" xml:space="preserve">
<style type="text/css">
	.st0{fill:#F07F1A;}
</style>
<g>
	<path class="st0" d="M11.2,22.2c-6.1,0-11-4.9-11-11c0-6.1,4.9-11,11-11s11,4.9,11,11C22.2,17.3,17.3,22.2,11.2,22.2z M11.2,2.2
		c-5,0-9,4-9,9s4,9,9,9c5,0,9-4,9-9S16.2,2.2,11.2,2.2z"/>
</g>
<g>
	<path class="st0" d="M11.2,16.2c-0.6,0-1-0.4-1-1v-4c0-0.6,0.4-1,1-1s1,0.4,1,1v4C12.2,15.8,11.8,16.2,11.2,16.2z"/>
</g>
<g>
	<path class="st0" d="M11.2,8.2c-0.1,0-0.3,0-0.4-0.1c-0.1-0.1-0.2-0.1-0.3-0.2c-0.2-0.2-0.3-0.4-0.3-0.7c0-0.1,0-0.3,0.1-0.4
		c0-0.1,0.1-0.2,0.2-0.3c0.1-0.1,0.2-0.2,0.3-0.2c0.4-0.2,0.8-0.1,1.1,0.2c0.1,0.1,0.2,0.2,0.2,0.3c0,0.1,0.1,0.2,0.1,0.4
		c0,0.3-0.1,0.5-0.3,0.7C11.7,8.1,11.5,8.2,11.2,8.2z"/>
</g>
</svg>
