<?xml version="1.0" encoding="utf-8"?>
<!-- Generator: Adobe Illustrator 24.2.3, SVG Export Plug-In . SVG Version: 6.00 Build 0)  -->
<svg version="1.1" id="Capa_1" xmlns="http://www.w3.org/2000/svg" xmlns:xlink="http://www.w3.org/1999/xlink" x="0px" y="0px"
	 viewBox="0 0 22.8 22.8" style="enable-background:new 0 0 22.8 22.8;" xml:space="preserve">
<style type="text/css">
	.st0{fill:#FF8000;}
</style>
<g>
	<path class="st0" d="M10.3,20.4c-5.6,0-10.1-4.5-10.1-10.1S4.7,0.2,10.3,0.2s10.1,4.5,10.1,10.1S15.9,20.4,10.3,20.4z M10.3,2.8
		c-4.1,0-7.5,3.4-7.5,7.5c0,4.2,3.3,7.5,7.5,7.5c4.1,0,7.5-3.4,7.5-7.5C17.8,6.2,14.4,2.8,10.3,2.8z"/>
</g>
<g>
	<path class="st0" d="M21.3,22.6c-0.3,0-0.7-0.1-0.9-0.4l-4.7-4.7c-0.5-0.5-0.5-1.3,0-1.9c0.5-0.5,1.3-0.5,1.9,0l4.7,4.7
		c0.5,0.5,0.5,1.3,0,1.9C21.9,22.5,21.6,22.6,21.3,22.6z"/>
</g>
</svg>
