<?xml version="1.0" encoding="utf-8"?>
<!-- Generator: Adobe Illustrator 24.2.3, SVG Export Plug-In . SVG Version: 6.00 Build 0)  -->
<svg version="1.1" id="Capa_1" xmlns="http://www.w3.org/2000/svg" xmlns:xlink="http://www.w3.org/1999/xlink" x="0px" y="0px"
	 viewBox="0 0 22.4 22.4" style="enable-background:new 0 0 22.4 22.4;" xml:space="preserve">
<style type="text/css">
	.st0{fill:#FFFFFF;}
</style>
<g>
	<g>
		<path class="st0" d="M9.3,4.5H2.8C2.4,4.5,2,4.1,2,3.7s0.3-0.8,0.8-0.8h6.5c0.4,0,0.8,0.3,0.8,0.8S9.7,4.5,9.3,4.5z"/>
	</g>
	<g>
		<path class="st0" d="M19.6,4.5h-6.5c-0.4,0-0.8-0.3-0.8-0.8s0.3-0.8,0.8-0.8h6.5c0.4,0,0.8,0.3,0.8,0.8S20,4.5,19.6,4.5z"/>
	</g>
	<g>
		<path class="st0" d="M11.2,11.9H2.8c-0.4,0-0.8-0.3-0.8-0.8c0-0.4,0.3-0.8,0.8-0.8h8.4c0.4,0,0.8,0.3,0.8,0.8
			C12,11.6,11.6,11.9,11.2,11.9z"/>
	</g>
	<g>
		<path class="st0" d="M19.6,11.9h-4.7c-0.4,0-0.8-0.3-0.8-0.8c0-0.4,0.3-0.8,0.8-0.8h4.7c0.4,0,0.8,0.3,0.8,0.8
			C20.4,11.6,20,11.9,19.6,11.9z"/>
	</g>
	<g>
		<path class="st0" d="M7.5,19.4H2.8c-0.4,0-0.8-0.3-0.8-0.8s0.3-0.8,0.8-0.8h4.7c0.4,0,0.8,0.3,0.8,0.8S7.9,19.4,7.5,19.4z"/>
	</g>
	<g>
		<path class="st0" d="M19.6,19.4h-8.4c-0.4,0-0.8-0.3-0.8-0.8s0.3-0.8,0.8-0.8h8.4c0.4,0,0.8,0.3,0.8,0.8S20,19.4,19.6,19.4z"/>
	</g>
	<g>
		<path class="st0" d="M9.3,7.3c-0.4,0-0.8-0.3-0.8-0.8V0.9c0-0.4,0.3-0.8,0.8-0.8s0.8,0.3,0.8,0.8v5.6C10.1,6.9,9.7,7.3,9.3,7.3z"
			/>
	</g>
	<g>
		<path class="st0" d="M14.9,14.7c-0.4,0-0.8-0.3-0.8-0.8V8.4c0-0.4,0.3-0.8,0.8-0.8s0.8,0.3,0.8,0.8V14
			C15.7,14.4,15.4,14.7,14.9,14.7z"/>
	</g>
	<g>
		<path class="st0" d="M7.5,22.2c-0.4,0-0.8-0.3-0.8-0.8v-5.6c0-0.4,0.3-0.8,0.8-0.8c0.4,0,0.8,0.3,0.8,0.8v5.6
			C8.2,21.9,7.9,22.2,7.5,22.2z"/>
	</g>
</g>
</svg>
