<?xml version="1.0" encoding="utf-8"?>
<!-- Generator: Adobe Illustrator 24.2.3, SVG Export Plug-In . SVG Version: 6.00 Build 0)  -->
<svg version="1.1" id="Capa_1" xmlns="http://www.w3.org/2000/svg" xmlns:xlink="http://www.w3.org/1999/xlink" x="0px" y="0px"
	 viewBox="0 0 22.4 22.4" style="enable-background:new 0 0 22.4 22.4;" xml:space="preserve">
<style type="text/css">
	.st0{fill:#FFFFFF;}
</style>
<g>
	<path class="st0" d="M13.7,12.1H1c-0.5,0-0.9-0.4-0.9-0.9s0.4-0.9,0.9-0.9h12.7c0.5,0,0.9,0.4,0.9,0.9S14.2,12.1,13.7,12.1z"/>
</g>
<g>
	<path class="st0" d="M21.4,6H1C0.5,6,0.1,5.6,0.1,5.1S0.5,4.3,1,4.3h20.4c0.5,0,0.9,0.4,0.9,0.9S21.9,6,21.4,6z"/>
</g>
<g>
	<path class="st0" d="M6.1,18.1H1c-0.5,0-0.9-0.4-0.9-0.9s0.4-0.9,0.9-0.9h5.1c0.5,0,0.9,0.4,0.9,0.9S6.6,18.1,6.1,18.1z"/>
</g>
</svg>
