<?xml version="1.0" encoding="utf-8"?>
<!-- Generator: Adobe Illustrator 24.2.3, SVG Export Plug-In . SVG Version: 6.00 Build 0)  -->
<svg version="1.1" id="Capa_1" xmlns="http://www.w3.org/2000/svg" xmlns:xlink="http://www.w3.org/1999/xlink" x="0px" y="0px"
	 viewBox="0 0 45.3 45.3" style="enable-background:new 0 0 45.3 45.3;" xml:space="preserve">
<style type="text/css">
	.st0{fill:#010202;}
</style>
<g>
	<path class="st0" d="M41.6,44.9c-0.5,0-1-0.5-1-1v-4.7c0-2.3-0.9-4.4-2.5-6c-1.6-1.6-3.7-2.5-6-2.5H13.2c-2.3,0-4.4,0.9-6,2.5
		c-1.6,1.6-2.5,3.7-2.5,6v4.7c0,0.5-0.4,1-1,1s-1-0.5-1-1v-4.7c0-2.8,1.1-5.4,3.1-7.4c2-2,4.6-3.1,7.4-3.1h18.9
		c2.8,0,5.4,1.1,7.4,3.1s3.1,4.6,3.1,7.4v4.7C42.6,44.5,42.1,44.9,41.6,44.9z"/>
</g>
<g>
	<path class="st0" d="M22.7,21.3c-5.8,0-10.5-4.7-10.5-10.5S16.9,0.4,22.7,0.4s10.4,4.7,10.4,10.4S28.4,21.3,22.7,21.3z M22.7,2.4
		c-4.7,0-8.5,3.8-8.5,8.5s3.8,8.4,8.5,8.4s8.4-3.8,8.4-8.5S27.3,2.4,22.7,2.4z"/>
</g>
</svg>
